<svg width="30" height="30" viewBox="0 0 30 30" fill="none" xmlns="http://www.w3.org/2000/svg">
<path d="M2.5 7.5H23.75C24.7446 7.5 25.6984 7.89509 26.4017 8.59835C27.1049 9.30161 27.5 10.2554 27.5 11.25C27.5 12.2446 27.1049 13.1984 26.4017 13.9017C25.6984 14.6049 24.7446 15 23.75 15H22.185C21.5785 17.3589 20.1319 19.4154 18.1167 20.7835C16.1016 22.1515 13.6564 22.7371 11.2401 22.4302C8.82386 22.1233 6.60267 20.9452 4.99344 19.1168C3.38421 17.2885 2.4976 14.9357 2.5 12.5V7.5ZM22.5 12.5H23.75C24.0815 12.5 24.3995 12.3683 24.6339 12.1339C24.8683 11.8995 25 11.5815 25 11.25C25 10.9185 24.8683 10.6005 24.6339 10.3661C24.3995 10.1317 24.0815 10 23.75 10H22.5V12.5Z" fill="#F8F8F8"/>
</svg>
