<svg width="20" height="20" viewBox="0 0 20 20" fill="none" xmlns="http://www.w3.org/2000/svg">
<path d="M17.1872 1.47368H12.9091V1.43158C12.9091 0.631579 12.2674 0 11.4545 0H8.54545C7.73262 0 7.09091 0.631579 7.09091 1.43158V1.47368H2.81283C2.36364 1.47368 2 1.83158 2 2.27368V3.07368C2 3.51579 2.36364 3.87368 2.81283 3.87368H17.1872C17.6364 3.87368 18 3.51579 18 3.07368V2.27368C18 1.83158 17.6364 1.47368 17.1872 1.47368Z" fill="#31998D"/>
<path d="M16.1177 4.96838H3.88244C3.64714 4.96838 3.47602 5.15786 3.49741 5.38944L4.09634 17.5789C4.16051 18.9263 5.2942 20 6.66319 20H13.3156C14.6846 20 15.8183 18.9473 15.8824 17.5789L16.4814 5.38944C16.5241 5.17891 16.3316 4.96838 16.1177 4.96838ZM8.67388 16.7368C8.67388 17.1158 8.37442 17.4105 7.98939 17.4105C7.60436 17.4105 7.3049 17.1158 7.3049 16.7368V8.25259C7.3049 7.87365 7.60436 7.57891 7.98939 7.57891C8.37442 7.57891 8.67388 7.87365 8.67388 8.25259V16.7368ZM12.6953 16.7368C12.6953 17.1158 12.3958 17.4105 12.0108 17.4105C11.6258 17.4105 11.3263 17.1158 11.3263 16.7368V8.25259C11.3263 7.87365 11.6258 7.57891 12.0108 7.57891C12.3958 7.57891 12.6953 7.87365 12.6953 8.25259V16.7368Z" fill="#31998D"/>
</svg>
