<svg width="26" height="23" viewBox="0 0 26 23" fill="none" xmlns="http://www.w3.org/2000/svg">
<path d="M15.2491 7.13107C15.2491 6.15326 16.1774 5.36058 17.3225 5.36058H20.4327C21.5779 5.36058 22.5062 6.15326 22.5062 7.13107V9.78681C22.5062 10.7646 21.5779 11.5573 20.4327 11.5573H17.3225C16.1774 11.5573 15.2491 10.7646 15.2491 9.78681V7.13107Z" fill="white"/>
<path d="M15.2491 15.0983C15.2491 14.1205 16.1774 13.3278 17.3225 13.3278H20.4327C21.5779 13.3278 22.5062 14.1205 22.5062 15.0983V17.754C22.5062 18.7318 21.5779 19.5245 20.4327 19.5245H17.3225C16.1774 19.5245 15.2491 18.7318 15.2491 17.754V15.0983Z" fill="white"/>
<path d="M5.91844 15.0983C5.91844 14.1205 6.84676 13.3278 7.99191 13.3278H11.1021C12.2473 13.3278 13.1756 14.1205 13.1756 15.0983V17.754C13.1756 18.7318 12.2473 19.5245 11.1021 19.5245H7.99191C6.84676 19.5245 5.91844 18.7318 5.91844 17.754V15.0983Z" fill="white"/>
<path d="M3.84497 5.36058C3.84497 4.38276 4.77329 3.59009 5.91844 3.59009H11.1021C12.2473 3.59009 13.1756 4.38276 13.1756 5.36058V9.78681C13.1756 10.7646 12.2473 11.5573 11.1021 11.5573H5.91844C4.77329 11.5573 3.84497 10.7646 3.84497 9.78681V5.36058Z" fill="white"/>
</svg>
