<svg width="22" height="27" viewBox="0 0 22 27" fill="none" xmlns="http://www.w3.org/2000/svg">
<path d="M11 27C9.01517 25.3843 7.17543 23.6129 5.49999 21.7045C2.98571 18.8386 1.38112e-06 14.5704 1.38112e-06 10.5032C-0.00108903 8.42606 0.643513 6.39529 1.85223 4.66789C3.06095 2.9405 4.77944 1.59414 6.79023 0.799205C8.80102 0.00426924 11.0137 -0.20351 13.1483 0.202163C15.2829 0.607836 17.2434 1.60873 18.7817 3.07816C19.8058 4.05126 20.6176 5.20855 21.1701 6.48306C21.7225 7.75757 22.0045 9.12398 21.9999 10.5032C21.9999 14.5704 19.0142 18.8386 16.5 21.7045C14.8245 23.6129 12.9848 25.3843 11 27ZM11 6.00409C9.74967 6.00409 8.55058 6.47811 7.66648 7.32186C6.78238 8.16561 6.2857 9.30998 6.2857 10.5032C6.2857 11.6965 6.78238 12.8408 7.66648 13.6846C8.55058 14.5283 9.74967 15.0023 11 15.0023C12.2503 15.0023 13.4494 14.5283 14.3335 13.6846C15.2176 12.8408 15.7142 11.6965 15.7142 10.5032C15.7142 9.30998 15.2176 8.16561 14.3335 7.32186C13.4494 6.47811 12.2503 6.00409 11 6.00409Z" fill="#F8F8F8"/>
</svg>
